HIERARCHY
ROOT joint_0
{
	OFFSET 0.000000 0.000000 0.000000
	CHANNELS 6 Xposition Yposition Zposition Zrotation Yrotation Xrotation 
	JOINT joint_1
	{
		OFFSET 7.566162 2.250183 114.799927
		CHANNELS 3 Zrotation Yrotation Xrotation
		JOINT joint_2
		{
			OFFSET -5.201660 -0.414001 104.936035
			CHANNELS 3 Zrotation Yrotation Xrotation
			JOINT joint_3
			{
				OFFSET -6.923584 -0.419739 104.718018
				CHANNELS 3 Zrotation Yrotation Xrotation
				JOINT joint_4
				{
					OFFSET 3.108887 2.881104 149.449951
					CHANNELS 3 Zrotation Yrotation Xrotation
					JOINT joint_5
					{
						OFFSET 19.988770 5.920349 90.786987
						CHANNELS 3 Zrotation Yrotation Xrotation
						End Site
						{
							OFFSET 0.000000 0.000000 0.000000
						}
					}
				}
				JOINT joint_6
				{
					OFFSET 9.283936 -30.015930 84.410034
					CHANNELS 3 Zrotation Yrotation Xrotation
					JOINT joint_7
					{
						OFFSET 47.243164 -155.716736 -23.241089
						CHANNELS 3 Zrotation Yrotation Xrotation
						JOINT joint_8
						{
							OFFSET 31.323730 -15.356873 -268.798950
							CHANNELS 3 Zrotation Yrotation Xrotation
							JOINT joint_9
							{
								OFFSET 28.122314 -2.114624 -262.450012
								CHANNELS 3 Zrotation Yrotation Xrotation
								End Site
								{
									OFFSET 0.000000 0.000000 0.000000
								}
							}
						}
					}
				}
				JOINT joint_10
				{
					OFFSET -5.580566 33.311218 83.498047
					CHANNELS 3 Zrotation Yrotation Xrotation
					JOINT joint_11
					{
						OFFSET -22.773438 160.515381 -27.138062
						CHANNELS 3 Zrotation Yrotation Xrotation
						JOINT joint_12
						{
							OFFSET 27.004395 30.848877 -267.937988
							CHANNELS 3 Zrotation Yrotation Xrotation
							JOINT joint_13
							{
								OFFSET 32.625000 14.824585 -261.518005
								CHANNELS 3 Zrotation Yrotation Xrotation
								End Site
								{
									OFFSET 0.000000 0.000000 0.000000
								}
							}
						}
					}
				}
			}
		}
	}
	JOINT joint_14
	{
		OFFSET 20.623535 -83.447632 -106.174011
		CHANNELS 3 Zrotation Yrotation Xrotation
		JOINT joint_15
		{
			OFFSET 0.661865 -23.563843 -459.915039
			CHANNELS 3 Zrotation Yrotation Xrotation
			JOINT joint_16
			{
				OFFSET -23.461670 -28.727966 -444.760971
				CHANNELS 3 Zrotation Yrotation Xrotation
				JOINT joint_17
				{
					OFFSET 178.992920 54.047363 -80.113001
					CHANNELS 3 Zrotation Yrotation Xrotation
					End Site
					{
						OFFSET 0.000000 0.000000 0.000000
					}
				}
			}
		}
	}
	JOINT joint_18
	{
		OFFSET -19.571533 84.686279 -105.380005
		CHANNELS 3 Zrotation Yrotation Xrotation
		JOINT joint_19
		{
			OFFSET -22.949951 3.639404 -459.933044
			CHANNELS 3 Zrotation Yrotation Xrotation
			JOINT joint_20
			{
				OFFSET -33.690674 4.092651 -445.010971
				CHANNELS 3 Zrotation Yrotation Xrotation
				JOINT joint_21
				{
					OFFSET 187.419678 18.953857 -76.759001
					CHANNELS 3 Zrotation Yrotation Xrotation
					End Site
					{
						OFFSET 0.000000 0.000000 0.000000
					}
				}
			}
		}
	}
}
MOTION
Frames: 11
Frame Time: 0.016667
-2783.182617 847.104675 1109.552979 -15.115043 2.314022 -1.795471 -1.518450 9.525580 1.532066 1.979802 -1.503508 -0.599325 2.765079 1.882388 0.155066 0.185210 -3.273040 0.329752 0.000000 0.000000 0.000000 5.734197 7.266884 -4.977383 -5.394912 5.192728 -11.412825 3.060787 -51.108280 57.431883 0.000000 0.000000 0.000000 0.747285 5.204382 0.702483 15.031188 8.682954 14.780590 1.554573 -50.466281 -60.331786 0.000000 0.000000 0.000000 5.425647 -13.656295 1.734626 -0.249323 27.482622 -3.215590 -1.914352 -3.858887 0.570712 0.000000 0.000000 0.000000 3.215651 -8.116288 13.282063 2.794876 61.235538 -6.362143 -10.391728 -0.176195 -4.170678 0.000000 0.000000 0.000000 
-2774.888916 847.840393 1113.259033 -15.060398 1.433565 -1.366165 -1.691189 9.836099 1.186764 2.077700 -1.540202 -0.633819 2.897539 1.927897 0.155954 0.178081 -3.359737 0.400608 0.000000 0.000000 0.000000 5.450398 7.125793 -5.117066 -5.298352 5.018563 -11.710670 3.077744 -49.764484 56.884586 0.000000 0.000000 0.000000 0.325378 5.046982 0.508006 14.851522 8.642563 14.919564 1.536565 -48.937562 -60.118904 0.000000 0.000000 0.000000 5.092473 -12.333434 1.390725 -0.171340 27.606288 -3.344676 -1.991472 -3.174874 0.328205 0.000000 0.000000 0.000000 4.023210 -9.684122 13.493860 3.211807 63.288274 -5.465014 -8.345679 -1.129782 -3.216261 0.000000 0.000000 0.000000 
-2766.122803 848.207764 1116.642944 -15.123861 0.872136 -1.140922 -1.667046 9.683942 0.808080 2.117207 -1.533381 -0.531895 2.915094 1.921713 0.052771 0.177804 -3.327043 0.397856 0.000000 0.000000 0.000000 5.187890 7.294089 -5.118843 -4.988436 5.139581 -11.695585 3.197106 -48.607933 56.179071 0.000000 0.000000 0.000000 -0.022240 5.554275 0.425889 14.723367 9.135133 14.958613 1.588227 -48.631782 -59.691334 0.000000 0.000000 0.000000 4.741786 -10.993292 1.107058 -0.038785 27.019019 -3.274001 -1.860681 -2.477452 0.155109 0.000000 0.000000 0.000000 4.955402 -11.430031 13.931250 3.578226 64.233882 -4.780362 -6.033883 -1.836152 -2.144616 0.000000 0.000000 0.000000 
-2757.540283 848.629761 1119.875000 -15.239297 0.526110 -1.014488 -1.501500 9.262023 0.406310 2.112648 -1.495755 -0.352561 2.846816 1.880127 -0.101968 0.183161 -3.293257 0.369214 0.000000 0.000000 0.000000 4.890116 7.639555 -5.077759 -4.554178 5.455467 -11.457335 3.372765 -47.761925 55.253834 0.000000 0.000000 0.000000 -0.328321 6.423439 0.390095 14.592420 9.896570 14.837641 1.658253 -49.138707 -58.997834 0.000000 0.000000 0.000000 4.356836 -9.645792 0.812857 0.111702 25.908814 -3.081530 -1.599022 -1.771321 0.025533 0.000000 0.000000 0.000000 5.975123 -13.276202 14.402200 3.928134 64.175104 -4.224428 -3.549360 -2.465069 -1.081228 0.000000 0.000000 0.000000 
-2749.943848 849.734131 1122.542969 -15.514404 0.155014 -0.932153 -1.258708 9.050567 0.094240 2.138333 -1.452846 -0.213985 2.788391 1.837354 -0.216101 0.191042 -3.300917 0.345243 0.000000 0.000000 0.000000 4.668250 7.913846 -5.086700 -4.207173 5.725778 -11.272175 3.503909 -47.263110 54.386404 0.000000 0.000000 0.000000 -0.559078 7.179102 0.429745 14.459647 10.514657 14.501882 1.705897 -49.841058 -58.266029 0.000000 0.000000 0.000000 4.027489 -8.479243 0.537894 0.272622 25.029575 -2.896620 -1.337607 -1.125899 -0.082338 0.000000 0.000000 0.000000 6.842297 -14.816143 14.674561 4.249791 63.190328 -3.722449 -1.579298 -3.205263 -0.324452 0.000000 0.000000 0.000000 
-2743.852295 851.851318 1124.546997 -16.038696 -0.355869 -0.896926 -0.931994 9.296019 -0.047444 2.231310 -1.431997 -0.178852 2.786423 1.831700 -0.255065 0.205320 -3.391958 0.325526 0.000000 0.000000 0.000000 4.615002 8.043942 -5.178969 -4.050902 5.874207 -11.260308 3.526425 -47.231663 53.663190 0.000000 0.000000 0.000000 -0.671548 7.679355 0.617042 14.284853 10.838905 13.774763 1.678225 -50.763964 -57.418501 0.000000 0.000000 0.000000 3.823912 -7.601483 0.320618 0.464589 24.738666 -2.770376 -1.096964 -0.565270 -0.167413 0.000000 0.000000 0.000000 7.479581 -15.800583 14.692360 4.601131 61.092788 -3.188380 -0.222429 -4.010736 0.153458 0.000000 0.000000 0.000000 
-2738.746582 854.650879 1125.987061 -16.728569 -0.893669 -0.915410 -0.514083 9.761060 -0.058455 2.336496 -1.430679 -0.205329 2.794475 1.850354 -0.256145 0.223334 -3.529862 0.308565 0.000000 0.000000 0.000000 4.647209 8.109914 -5.303764 -3.970964 5.967062 -11.316228 3.509807 -47.537873 52.984482 0.000000 0.000000 0.000000 -0.703185 8.053470 0.876154 14.103538 11.015207 12.856484 1.618120 -51.868119 -56.532308 0.000000 0.000000 0.000000 3.692827 -6.911591 0.149628 0.666237 24.699204 -2.669632 -0.860249 -0.100788 -0.222590 0.000000 0.000000 0.000000 7.885084 -16.335230 14.611789 4.943339 57.911761 -2.747305 0.605038 -4.518371 0.442907 0.000000 0.000000 0.000000 
-2733.872803 857.767822 1126.761963 -17.419209 -1.341499 -0.937318 -0.085383 10.176926 -0.004500 2.387874 -1.440202 -0.255342 2.763802 1.880863 -0.235066 0.233546 -3.648883 0.318173 0.000000 0.000000 0.000000 4.625172 8.097329 -5.415404 -3.852311 5.969005 -11.386658 3.555890 -47.856040 52.342871 0.000000 0.000000 0.000000 -0.744733 8.220102 1.030721 14.075459 11.080585 12.269375 1.643972 -52.505429 -56.122597 0.000000 0.000000 0.000000 3.532550 -6.304371 -0.024267 0.798970 24.638844 -2.607927 -0.699546 0.177817 -0.250288 0.000000 0.000000 0.000000 7.916071 -16.584065 14.549016 5.067329 54.119429 -2.655971 0.623438 -4.511197 0.458804 0.000000 0.000000 0.000000 
-2729.070312 861.043213 1126.823975 -17.969912 -1.621667 -0.931379 0.323185 10.423996 0.072992 2.338622 -1.446443 -0.305307 2.641858 1.929118 -0.186431 0.226632 -3.732353 0.386664 0.000000 0.000000 0.000000 4.458244 7.980992 -5.511845 -3.651065 5.856323 -11.436987 3.709419 -48.065761 51.772943 0.000000 0.000000 0.000000 -0.845886 8.103788 0.982011 14.329412 11.032258 12.347687 1.837653 -52.404200 -56.562609 0.000000 0.000000 0.000000 3.258738 -5.755398 -0.244800 0.799761 24.430265 -2.582173 -0.654732 0.208101 -0.249036 0.000000 0.000000 0.000000 7.215037 -16.568814 14.566114 4.595599 49.355516 -3.178233 -0.663336 -3.814860 -0.000257 0.000000 0.000000 0.000000 
-2724.500000 864.636963 1126.219971 -18.551241 -1.834030 -0.949040 0.733226 10.668368 0.237263 2.254919 -1.487457 -0.390963 2.503579 1.990499 -0.117754 0.212179 -3.797539 0.480297 0.000000 0.000000 0.000000 4.237168 7.784339 -5.593890 -3.412916 5.650665 -11.500932 3.926542 -48.285897 51.243587 0.000000 0.000000 0.000000 -0.957593 7.780861 0.828004 14.753937 10.874145 12.769886 2.130527 -51.846208 -57.500819 0.000000 0.000000 0.000000 2.961342 -5.268324 -0.443185 0.744875 24.195182 -2.596096 -0.672272 0.059884 -0.217638 0.000000 0.000000 0.000000 6.044503 -16.084690 14.615363 3.700790 43.648221 -3.963653 -2.311249 -2.278419 -0.672759 0.000000 0.000000 0.000000 
-2719.899658 868.670898 1124.989014 -19.376176 -2.059846 -1.022441 1.111668 10.942896 0.494608 2.224824 -1.572749 -0.506305 2.445546 2.031974 -0.067865 0.205529 -3.818681 0.523434 0.000000 0.000000 0.000000 4.087819 7.566182 -5.620822 -3.157115 5.386733 -11.627302 4.173583 -48.545201 50.652198 0.000000 0.000000 0.000000 -1.039512 7.403479 0.684228 15.165510 10.663288 13.080089 2.428305 -51.065476 -58.382247 0.000000 0.000000 0.000000 2.770095 -4.845273 -0.577005 0.733476 24.046246 -2.645223 -0.698915 -0.182816 -0.157777 0.000000 0.000000 0.000000 5.340248 -15.380498 14.565883 3.189910 38.718125 -4.373944 -2.824928 -0.524193 -1.012065 0.000000 0.000000 0.000000 
